<svg width="52" height="52" viewBox="0 0 52 52" fill="none" xmlns="http://www.w3.org/2000/svg">
<path d="M27.9374 3.87554L30.2371 1.5699V0.300049H25.6964H21.1616V1.5699L23.4612 3.87554V19.7985L25.6964 25.703L27.9374 19.7985V3.87554Z" fill="white"/>
<path d="M3.8709 23.4619L1.57131 21.1621H0.301575V25.7032V30.2442H1.57131L3.8709 27.9386H19.7983L25.6965 25.7032L19.7983 23.4619H3.8709Z" fill="white"/>
<path d="M23.4611 47.5304L21.1616 49.8302V51.1001H25.6964H30.237V49.8302L27.9374 47.5304V31.6075L25.6964 25.703L23.4611 31.6075V47.5304Z" fill="white"/>
<path d="M47.5222 27.9388L49.8276 30.2444H51.0973V25.7034V21.1624H49.8276L47.5222 23.4621H31.6006L25.6965 25.7034L31.6006 27.9388H47.5222Z" fill="white"/>
<path d="M42.7123 11.8517H45.9716L46.8668 10.9505L43.6603 7.74368L40.4479 4.53101L39.5526 5.42634V8.68583L28.2887 19.9448L25.6965 25.703L31.4543 23.1107L42.7123 11.8517Z" fill="white"/>
<path d="M11.8464 8.68583V5.42634L10.9511 4.53101L7.7387 7.74368L4.53214 10.9505L5.42739 11.8517H8.68076L19.9447 23.1107L25.6966 25.703L23.1103 19.9448L11.8464 8.68583Z" fill="white"/>
<path d="M8.68076 39.5544H5.42739L4.53214 40.4497L7.7387 43.6624L10.9511 46.875L11.8464 45.9739V42.7202L23.1103 31.4612L25.6966 25.703L19.9447 28.2954L8.68076 39.5544Z" fill="white"/>
<path d="M39.5526 42.7202V45.9739L40.4479 46.875L43.6603 43.6624L46.8668 40.4497L45.9716 39.5544H42.7123L31.4543 28.2954L25.6965 25.703L28.2887 31.4612L39.5526 42.7202Z" fill="white"/>
</svg>
