<svg width="59" height="52" viewBox="0 0 59 52" fill="none" xmlns="http://www.w3.org/2000/svg">
<path d="M44.2942 51.2399L58.8064 25.8399L44.2942 0.439941H15.2697L0.757446 25.8399L15.2697 51.2399H44.2942ZM18.2236 48.6543L23.6284 39.1951C26.3659 34.41 33.1979 34.41 35.9354 39.1951L41.3402 48.6543H18.2236ZM43.5571 47.3615L38.1523 37.8965C35.4148 33.1113 38.8367 27.1269 44.3058 27.1269H55.1155L43.5571 47.3557V47.3615ZM55.1155 24.5471H44.3058C38.8367 24.5471 35.4207 18.5627 38.1523 13.7776L43.5571 4.31839L55.1155 24.5471ZM41.3402 3.02558L35.9354 12.4848C33.1979 17.2699 26.3659 17.2699 23.6284 12.4848L18.2236 3.02558H41.3402ZM16.0067 4.31839L21.4115 13.7776C24.149 18.5627 20.7271 24.5471 15.258 24.5471H4.44839L16.0067 4.31839ZM15.258 27.1328C20.7271 27.1328 24.1432 33.1171 21.4115 37.9023L16.0067 47.3673L4.44839 27.1386H15.258V27.1328Z" fill="white"/>
</svg>
