<svg width="52" height="52" viewBox="0 0 52 52" fill="none" xmlns="http://www.w3.org/2000/svg">
<path d="M49.8249 30.3799H51.0972V25.8399V21.3H49.8249L47.5252 23.6058H34.0498L45.7213 16.8675L48.8632 17.7098L49.9623 17.0766L47.6925 13.1399L45.4227 9.20927L44.3236 9.84249L43.4814 12.9906L31.8098 19.7289L38.5475 8.05636L41.6954 7.21407L42.3286 6.11492L38.3982 3.84493L34.4679 1.57493L33.8288 2.6741L34.6769 5.82221L27.9392 17.4888V4.0122L30.2389 1.71233V0.439941H25.6993H21.1597V1.71233L23.4593 4.0122V17.4888L16.7216 5.82221L17.5698 2.6741L16.9307 1.57493L13.0003 3.84493L9.06999 6.11492L9.70315 7.21407L12.851 8.05636L19.5887 19.7289L7.91717 12.9906L7.07496 9.84249L5.9759 9.20927L3.70609 13.1399L1.43629 17.0766L2.53535 17.7098L5.67724 16.8675L17.3488 23.6058H3.87334L1.57368 21.3H0.301392V25.8399V30.3799H1.57368L3.87334 28.0801H17.3488L5.67724 34.8184L2.53535 33.9761L1.43629 34.6093L3.70609 38.5399L5.9759 42.4766L7.07496 41.8374L7.91717 38.6953L19.5887 31.957L12.851 43.6235L9.70315 44.4718L9.06999 45.5709L13.0003 47.8409L16.9307 50.1109L17.5698 49.0118L16.7216 45.8636L23.4593 34.1911V47.6677L21.1597 49.9735V51.2399H25.6993H30.2389V49.9735L27.9392 47.6677V34.1911L34.6769 45.8636L33.8288 49.0118L34.4679 50.1109L38.3982 47.8409L42.3286 45.5709L41.6954 44.4718L38.5475 43.6235L31.8098 31.957L43.4814 38.6953L44.3236 41.8374L45.4227 42.4766L47.6925 38.5399L49.9623 34.6093L48.8632 33.9761L45.7213 34.8184L34.0498 28.0801H47.5252L49.8249 30.3799Z" fill="#EAEAEA"/>
</svg>
